<?xml version="1.0" standalone="no"?><!DOCTYPE svg PUBLIC "-//W3C//DTD SVG 1.1//EN" "http://www.w3.org/Graphics/SVG/1.1/DTD/svg11.dtd"><svg t="1623940808877" class="icon" viewBox="0 0 1024 1024" version="1.1" xmlns="http://www.w3.org/2000/svg" p-id="1631" xmlns:xlink="http://www.w3.org/1999/xlink" width="200" height="200"><defs><style type="text/css"></style></defs><path d="M1008.896 957.248l-258.176-257.664a422.656 422.656 0 0 0 100.864-274.56C851.584 190.208 660.992 0 425.792 0 190.72 0 0 190.4 0 425.024c0 234.752 190.592 424.96 425.728 424.96a425.024 425.024 0 0 0 273.28-99.008l258.24 257.792a36.48 36.48 0 0 0 51.648-51.52z m-583.168-179.968a351.552 351.552 0 0 1-249.472-103.232 350.72 350.72 0 0 1-103.36-248.96A349.824 349.824 0 0 1 176.256 176a351.488 351.488 0 0 1 249.472-103.168A351.552 351.552 0 0 1 675.2 176a350.72 350.72 0 0 1 103.424 248.96 349.824 349.824 0 0 1-103.36 248.96 351.424 351.424 0 0 1-249.472 103.232z" p-id="1632" fill="#ffffff"></path></svg>