<?xml version="1.0" standalone="no"?><!DOCTYPE svg PUBLIC "-//W3C//DTD SVG 1.1//EN" "http://www.w3.org/Graphics/SVG/1.1/DTD/svg11.dtd"><svg t="1624333307486" class="icon" viewBox="0 0 1024 1024" version="1.1" xmlns="http://www.w3.org/2000/svg" p-id="8387" xmlns:xlink="http://www.w3.org/1999/xlink" width="200" height="200"><defs><style type="text/css"></style></defs><path d="M513.3 512.9m-423 0a423 423 0 1 0 846 0 423 423 0 1 0-846 0Z" fill="#558DF7" p-id="8388"></path><path d="M786.3 328.9c-7.7-7.7-19.4-7.7-27.1 0L443.6 607.8c-7.7 5.8-17.4 5.8-25.2 0l-151-116.2c-7.7-7.7-19.4-7.7-27.1 0-7.7 7.7-7.7 19.4 0 27.1l178.1 178.1c7.7 7.7 19.4 7.7 27.1 0L786.3 356c7.7-7.7 7.7-21.3 0-27.1z m0 0" fill="#FFFFFF" p-id="8389"></path></svg>